<svg width="174" height="36" viewBox="0 0 174 36" fill="none" xmlns="http://www.w3.org/2000/svg">
<path d="M161.819 25.2C161.819 23.8745 162.894 22.8 164.219 22.8H171.6C172.925 22.8 174 23.8745 174 25.2V25.2C174 26.5255 172.925 27.6 171.6 27.6H164.219C162.894 27.6 161.819 26.5255 161.819 25.2V25.2Z" fill="#2B44E7"/>
<path d="M49.5078 14.412C45.842 13.8209 44.5574 13.3854 44.5574 12.2345C44.5574 11.1769 45.4034 9.87038 49.1005 9.87038C53.6435 9.87038 54.3015 12.1101 54.3015 13.6032C55.9934 13.6032 59.3146 13.6032 59.3146 13.6032C59.3146 10.3059 57.6227 5.57766 49.1005 5.57766C41.9256 5.57766 39.6383 9.12382 39.6383 12.2034C39.6383 16.185 42.5835 17.5226 49.1631 18.4869C53.4556 19.1091 54.9595 19.389 54.9595 20.851C54.9595 22.5308 53.4556 23.3707 49.8524 23.3707C47.0013 23.3707 44.0874 22.8419 44.0874 19.5757C41.3929 19.5757 40.171 19.5757 39.1997 19.5757C39.1997 21.6598 39.1684 27.6012 49.9778 27.6012C56.4007 27.6012 60.0352 26.2636 60.0352 20.851C60.0352 15.9362 54.4268 15.2207 49.5078 14.412Z" fill="#101727"/>
<path d="M66.4809 27.6012V10.2748H61.7498V27.6012H66.4809ZM66.4809 9.0305V4.79999H61.7498V9.0305H66.4809Z" fill="#101727"/>
<path d="M82.9667 10.337V12.9188H82.6847C81.4941 11.3635 79.5202 10.337 76.2617 10.337C68.8362 10.337 68.0529 16.5272 68.0529 19.078C68.0529 21.4421 68.8675 27.8189 76.2304 27.8189C79.5515 27.8189 81.5568 26.8857 82.7474 25.3926H82.9667V26.6369C82.9667 29.8409 81.5254 31.925 78.2983 31.925C74.5698 31.925 73.7552 30.1208 73.6299 29.1876C72.8466 29.1876 70.1521 29.1876 68.8988 29.1876C68.8988 31.7695 70.4341 36 78.3296 36C87.0711 36 87.7291 29.5298 87.7291 25.9214V10.337H82.9667ZM77.6403 23.744C73.0972 23.744 72.5959 20.3533 72.5959 19.078C72.5959 17.7093 73.0659 14.412 77.6403 14.412C81.7448 14.412 82.5907 16.7138 82.5907 19.078C82.5907 21.722 81.7448 23.744 77.6403 23.744Z" fill="#101727"/>
<path d="M100.312 10.1503C97.1479 10.1503 95.55 11.1769 94.422 12.7322H94.2027V10.1503H89.4403V27.6012H94.2027V19.2024C94.2027 16.8383 94.798 14.2253 98.9338 14.2253C103.477 14.2253 103.195 17.5226 103.195 18.8913V27.6012H107.926V18.8913C107.926 16.3406 107.738 10.1503 100.312 10.1503Z" fill="#101727"/>
<path d="M114.366 27.6012V10.2748H109.634V27.6012H114.366ZM114.366 9.0305V4.79999H109.634V9.0305H114.366Z" fill="#101727"/>
<path d="M122.866 14.1942H128.569V10.2126H122.866V5.17327H118.072V10.2126H115.754V14.1942H118.072V21.1932C118.072 23.7128 118.072 27.6012 122.866 27.6012C127.629 27.6012 128.569 27.2901 128.569 27.2901V22.6863C123.994 22.9352 122.866 23.2774 122.866 20.7577V20.3844V14.1942Z" fill="#101727"/>
<path d="M135.289 14.1942H140.991V10.2126H135.289V5.17327H130.495V10.2126H128.176V14.1942H130.495V21.1932C130.495 23.7128 130.495 27.6012 135.289 27.6012C140.051 27.6012 140.991 27.2901 140.991 27.2901V22.6863C136.417 22.9352 135.289 23.2774 135.289 20.7577V20.3844V14.1942Z" fill="#101727"/>
<path d="M151.2 9.83927C145.874 9.83927 141.425 12.7322 141.425 18.7358C141.425 24.7705 145.874 27.6012 151.2 27.6012C156.558 27.6012 161.007 24.8638 161.007 18.7358C161.007 12.67 156.558 9.83927 151.2 9.83927ZM151.2 23.3085C148.224 23.3085 146.093 22.002 146.093 18.7358C146.093 15.4385 148.224 14.1631 151.2 14.1631C154.208 14.1631 156.339 15.5007 156.339 18.7358C156.339 21.8776 154.208 23.3085 151.2 23.3085Z" fill="#101727"/>
<path d="M14.8515 11.3391C19.7275 11.3391 23.6802 7.44498 23.6802 2.64139H29.0148C29.0148 10.3474 22.6737 16.5944 14.8515 16.5944V11.3391Z" fill="#2B44E7"/>
<path d="M14.8248 11.2594C9.9489 11.2594 5.99617 15.1534 5.99617 19.957H0.661621C0.661621 12.251 7.00271 6.00397 14.8248 6.00397V11.2594Z" fill="#2B44E7"/>
<path d="M14.8248 23.7937C9.9489 23.7937 5.99617 27.6878 5.99617 32.4914H0.661621C0.661621 24.7853 7.00271 18.5383 14.8248 18.5383V23.7937Z" fill="#2B44E7"/>
<path d="M23.6802 15.1742C23.6802 19.9778 19.7275 23.8719 14.8515 23.8719V29.1273C22.6737 29.1273 29.0148 22.8803 29.0148 15.1742H23.6802Z" fill="#2B44E7"/>
</svg>
